<!DOCTYPE svg PUBLIC "-//W3C//DTD SVG 1.1//EN" "http://www.w3.org/Graphics/SVG/1.1/DTD/svg11.dtd">
<!-- Uploaded to: SVG Repo, www.svgrepo.com, Transformed by: SVG Repo Mixer Tools -->
<svg fill="#ffffff" width="64px" height="64px" viewBox="0 0 24 24" xmlns="http://www.w3.org/2000/svg" id="sign-out-alt-2" class="icon glyph" stroke="#ffffff">
<g id="SVGRepo_bgCarrier" stroke-width="0"/>
<g id="SVGRepo_tracerCarrier" stroke-linecap="round" stroke-linejoin="round"/>
<g id="SVGRepo_iconCarrier">
<path d="M13,15a1,1,0,0,0-1,1v4H4V4h8V8a1,1,0,0,0,2,0V4a2,2,0,0,0-2-2H4A2,2,0,0,0,2,4V20a2,2,0,0,0,2,2h8a2,2,0,0,0,2-2V16A1,1,0,0,0,13,15Z"/>
<path d="M21.92,11.62a1.15,1.15,0,0,0-.21-.33h0l-4-4a1,1,0,1,0-1.42,1.42L18.59,11H8a1,1,0,0,0,0,2H18.59l-2.3,2.29a1,1,0,0,0,0,1.42,1,1,0,0,0,1.42,0l4-4h0a1.15,1.15,0,0,0,.21-.33.94.94,0,0,0,0-.76Z"/>
</g>
</svg>